PathFileType	4	(X/Y/Z)	Patient4_TMGait_0pt4_01_left_24.trc.trc
DataRate	CameraRate	NumFrames	NumMarkers	Units	OrigDataRate	OrigDataStartFrame	OrigNumFrames
76.923076923077	76.923076923077	5	33	mm	76.923076923077	36	       141
Frame#	Time	Sacral			L.Shoulder			Chest			R.Shoulder			Neck			R.ASIS			L.ASIS			R.Thigh.Superior			R.Thigh.Lateral			R.Thigh.Inferior			R.Patella			L.Thigh.Superior			L.Thigh.Lateral			L.Thigh.Inferior			L.Patella			L.Shank.Superior			L.Shank.Lateral			L.Shank.Inferior			R.Shank.Superior			R.Shank.Lateral			R.Shank.Inferior			R.Heel			R.Midfoot.Superior			R.Midfoot.Lateral			R.Toe			L.Heel			L.Midfoot.Lateral			L.Midfoot.Superior			L.Toe			L.Elbow			L.Wrist			R.Elbow			R.Wrist			
		X1	Y1	Z1	X2	Y2	Z2	X3	Y3	Z3	X4	Y4	Z4	X5	Y5	Z5	X6	Y6	Z6	X7	Y7	Z7	X8	Y8	Z8	X9	Y9	Z9	X10	Y10	Z10	X11	Y11	Z11	X12	Y12	Z12	X13	Y13	Z13	X14	Y14	Z14	X15	Y15	Z15	X16	Y16	Z16	X17	Y17	Z17	X18	Y18	Z18	X19	Y19	Z19	X20	Y20	Z20	X21	Y21	Z21	X22	Y22	Z22	X23	Y23	Z23	X24	Y24	Z24	X25	Y25	Z25	X26	Y26	Z26	X27	Y27	Z27	X28	Y28	Z28	X29	Y29	Z29	X30	Y30	Z30	X31	Y31	Z31	X32	Y32	Z32	X33	Y33	Z33	

36	29.385000000000	825.191415276619	995.105242310105	453.316682124498	955.801475812039	1425.978697150411	248.361460859204	1081.731103563951	1368.909973188636	397.324854120542	1013.929002446935	1447.161290044902	576.527018676842	964.181980521857	1492.175996095778	401.246435951056	1061.649027507388	941.429629613025	554.613716067057	1031.432864743221	961.155318450056	281.890189908461	1091.047706106511	731.257621687150	528.635856683330	1008.755638386444	623.055958023714	596.169354866588	1080.873900462760	563.999296365954	516.500590034017	1072.459454680468	459.990420135230	532.903379925408	1107.175677275690	762.588404751590	312.784411481081	1036.242060869569	636.075947829157	251.857360726479	1132.048173829130	570.384832629721	313.106327889579	1141.406889077737	500.339784874997	321.423133249495	1119.357738994155	424.634131038483	313.331062696782	1037.063131506513	305.128362530307	260.531452563760	1096.276140868263	197.193761163826	331.472953937275	1006.801900762411	386.377879023611	540.965721313496	900.575776975058	324.164730547705	609.646868888770	899.838524980198	217.331494808920	552.852232886317	711.493145491141	103.482130978555	537.088180815806	891.879383860638	107.899908038106	564.797332753141	792.551716560590	71.487842323998	606.910335068722	992.069511731570	34.794853790369	586.340733857450	975.287001090783	38.229083160947	370.910624539523	1050.799720392252	35.106821549195	291.592076673532	1131.929668228146	98.622233759895	319.653606161884	1261.623822643535	50.261333688117	295.230812178675	892.348576835105	1077.579618700095	143.638924039455	960.789950834682	825.981819028030	115.573926298027	1078.900988935058	1108.491097690922	702.980101716098	1275.145802424055	963.925568797115	617.846981791614	
37	29.398000000000	824.660285417425	995.701824427941	450.494303779679	956.917529668162	1426.081523188007	244.899749902169	1081.847201315413	1369.284333117243	394.760562860488	1013.109953890706	1448.123442649204	573.341439071511	964.322964783245	1492.677870828520	397.634327026700	1060.562528286843	942.023282766924	552.741540900363	1031.524147539163	961.731715230296	279.969318971604	1095.315228067746	733.693486530607	527.065591356771	1016.093184239577	623.657261440894	594.609451643594	1090.652352576967	565.937392237718	515.575836488711	1083.718634208046	460.430502333279	532.988806109434	1105.821773325954	761.955776937942	309.673148163180	1032.928936252474	636.055237555858	250.008274236699	1128.426256662706	569.691669307225	310.830076626074	1137.157269190503	499.924754134875	319.635723161515	1115.005994241643	424.308940072258	311.770616831298	1032.314737719648	304.858107205192	259.541435710622	1091.311016765861	197.038411937836	330.780614383487	1015.746974606949	387.628414300788	540.463510022589	906.837297108957	329.334251553309	608.373121563049	903.454375471556	222.203310021942	552.407263450432	711.566541271720	115.907707970678	535.603261482463	891.794160717578	111.779805957918	564.518896333945	790.519211932702	79.855484961414	605.776027480365	987.778171158892	34.189910642479	586.337788634134	970.084851842300	38.235094774687	370.808406781299	1045.561236400197	34.986415292718	291.436207730482	1126.686256536808	98.597271601925	319.405150626614	1256.408294370938	50.288845446422	295.098738244631	896.862541752275	1077.071566106757	139.558216227298	969.922715254078	826.588879248392	112.612072966080	1070.940898855563	1108.578779185646	701.465315028073	1261.602133235989	954.565318218630	619.222279238109	
38	29.411000000000	823.906688392656	996.160992431025	447.799398213962	958.141501505121	1426.062858925033	241.536843818099	1081.907843792952	1369.497642328910	392.395371922975	1012.119428003960	1448.888864274667	570.321078260788	964.488417469440	1493.067410070746	394.132067004413	1059.331776189189	942.503625476363	551.036294418329	1031.417654586472	962.206614375923	278.197625030227	1099.667231948676	736.373875933617	525.622424224197	1023.672481118727	624.508744668487	593.211870826024	1100.633533022658	568.270463005047	514.817630317145	1095.234529164299	461.410960198848	533.019843256881	1104.152815456240	761.230292192770	306.864949845434	1029.617021192357	636.026679568827	248.213048863272	1124.689971676877	569.008547434011	308.809691958490	1132.780318979727	499.469513649066	317.961288141184	1110.536525305206	423.949718493102	310.292962884282	1027.485151618832	304.542511390147	258.599945702753	1086.269096543003	196.837824229095	330.135622088984	1025.155314168678	389.263119031161	539.943734541719	913.764866454201	334.804194507156	607.064935039285	907.710118130772	227.499998988045	551.834944311743	712.603171335315	128.844796627505	533.933175455572	892.342329813315	116.251554346251	564.072903386902	789.283166513218	88.868619740117	604.482118855999	984.098335330739	33.823933831726	586.290188505199	964.817721409482	38.217719574005	370.725111782204	1040.255500920103	34.852723682731	291.301024023975	1121.392753410836	98.513909423151	319.197734947251	1251.136825871097	50.234648847741	294.981157367025	901.521452966647	1076.493160254889	135.522996997016	979.247602398028	827.217945996157	109.776221666664	1062.625896397257	1108.582453077713	700.018582069686	1247.218553845780	945.048303751093	621.216395914103	
39	29.424000000000	822.949080709430	996.491860189823	445.249079107453	959.426608355828	1425.936010793184	238.312631527677	1081.906171921961	1369.569769447438	390.239415210736	1010.983902102754	1449.468248395407	567.492222667523	964.673924697473	1493.359441691600	390.780651375285	1057.991725609111	942.890996723651	549.464840175718	1031.118752615897	962.607157462169	276.534775779783	1103.965527319379	739.286995706711	524.255328180732	1031.321404018449	625.656664361420	591.959620369101	1110.572759708182	571.021831828392	514.173925721591	1106.803808915072	462.968483054291	532.967912508266	1102.245327597871	760.480555174506	304.417137468491	1026.420208969420	636.011518412883	246.481431295878	1120.925687956272	568.355978360895	307.076315031186	1128.361351725503	498.989322727512	316.448403109811	1106.035424399760	423.569028327225	308.937915484870	1022.673066456580	304.205855222642	257.704869224718	1081.210434877664	196.609179761605	329.554970988587	1034.859637861311	391.295973413330	539.400837526373	921.234893348687	340.470101292051	605.742203614727	912.585609126660	233.094959392012	551.158269065904	714.669588364699	141.860072746807	532.168189739872	893.633156444182	121.186142443471	563.467341813845	789.021373360882	98.219218118171	603.087651713216	981.305277945701	33.793356831649	586.168526984688	959.516328528517	38.185099887190	370.651257671839	1034.917323013214	34.720594816372	291.180773861896	1116.076071951020	98.397336007234	319.026986248630	1245.837483511707	50.135942449660	294.875447541134	906.368925357140	1075.849669833079	131.568731720868	988.723589753749	827.861056941405	107.079103937992	1053.960214821929	1108.500870689856	698.627195916768	1231.986468671659	935.455351402718	623.878262003450	
40	29.437000000000	821.810714698703	996.727731947313	442.840679696141	960.723809827439	1425.737143720366	235.266410040204	1081.838049861696	1369.539719321622	388.297172244688	1009.735415829684	1449.889435169174	564.876524202935	964.874474103141	1493.583387361898	387.622612283202	1056.570177450396	943.225991572235	547.988508483811	1030.647759932563	962.968513965341	274.942572092386	1108.073459727073	742.419565801442	522.909764665894	1038.870379988525	627.139251258935	590.830997899657	1120.239066789772	574.202465195476	513.586163517840	1118.237647566693	465.121908043769	532.815796439903	1100.183921043168	759.762469734000	302.340872004665	1023.392437801423	636.018491308282	244.834565638564	1117.191043589593	567.743666604238	305.631713263344	1123.960284888632	498.499305887575	315.135561977166	1101.562307280588	423.180978068336	307.737810410527	1017.941168184446	303.872475465671	256.864716676177	1076.176869133764	196.369649850884	329.051978182028	1044.707436121207	393.726346527132	538.839160135249	929.132066847949	346.204771682354	604.437828555137	918.082357984268	238.827137688097	550.420764233812	717.828914995061	154.466480406309	530.421231560173	895.812552236524	126.394277383698	562.736894952316	789.925064975389	107.530148191133	601.671503397801	979.711170194709	34.175816605539	585.947591583461	954.204505503859	38.144927631166	370.580996436960	1029.573586862514	34.601501205179	291.071967653344	1110.756372795383	98.269973405317	318.887958789987	1240.531210970694	50.024568614645	294.779004317689	911.443700885998	1075.172841752782	127.733757024739	998.314090774646	828.532920827151	104.538961487125	1044.958839773309	1108.353959879948	697.276722129268	1215.897415042901	925.881232953632	627.248037096499	
